<mxfile host="Electron" agent="Mozilla/5.0 (Windows NT 10.0; Win64; x64) AppleWebKit/537.36 (KHTML, like Gecko) draw.io/26.2.15 Chrome/134.0.6998.205 Electron/35.2.1 Safari/537.36" version="26.2.15">
  <diagram name="PÃ¡gina-1" id="5-nf9gYkA6VWZDe-K52d">
    <mxGraphModel dx="2316" dy="1080" grid="0" gridSize="10" guides="1" tooltips="1" connect="1" arrows="1" fold="1" page="1" pageScale="1" pageWidth="827" pageHeight="1169" math="0" shadow="0">
      <root>
        <mxCell id="0" />
        <mxCell id="1" parent="0" />
        <mxCell id="V0NBKsWqu-eUCYTIVeNk-44" value="" style="whiteSpace=wrap;html=1;" vertex="1" parent="1">
          <mxGeometry x="-161" y="575" width="186" height="184" as="geometry" />
        </mxCell>
        <mxCell id="V0NBKsWqu-eUCYTIVeNk-36" value="" style="whiteSpace=wrap;html=1;" vertex="1" parent="1">
          <mxGeometry x="56" y="108" width="607" height="651" as="geometry" />
        </mxCell>
        <mxCell id="V0NBKsWqu-eUCYTIVeNk-28" value="" style="whiteSpace=wrap;html=1;" vertex="1" parent="1">
          <mxGeometry x="156" y="528" width="274" height="200" as="geometry" />
        </mxCell>
        <mxCell id="V0NBKsWqu-eUCYTIVeNk-22" value="" style="rounded=0;orthogonalLoop=1;jettySize=auto;html=1;startArrow=classic;startFill=1;" edge="1" parent="1" source="V0NBKsWqu-eUCYTIVeNk-5" target="V0NBKsWqu-eUCYTIVeNk-20">
          <mxGeometry relative="1" as="geometry">
            <mxPoint x="414" y="209" as="targetPoint" />
          </mxGeometry>
        </mxCell>
        <mxCell id="V0NBKsWqu-eUCYTIVeNk-5" value="" style="fontColor=#0066CC;verticalAlign=top;verticalLabelPosition=bottom;labelPosition=center;align=center;html=1;outlineConnect=0;fillColor=#CCCCCC;strokeColor=#6881B3;gradientColor=none;gradientDirection=north;strokeWidth=2;shape=mxgraph.networks.router;" vertex="1" parent="1">
          <mxGeometry x="364" y="289" width="100" height="30" as="geometry" />
        </mxCell>
        <mxCell id="V0NBKsWqu-eUCYTIVeNk-9" value="" style="strokeWidth=2;html=1;shape=mxgraph.flowchart.database;whiteSpace=wrap;" vertex="1" parent="1">
          <mxGeometry x="329" y="607" width="60" height="82" as="geometry" />
        </mxCell>
        <mxCell id="V0NBKsWqu-eUCYTIVeNk-10" value="MariaDB" style="text;html=1;align=center;verticalAlign=middle;resizable=0;points=[];autosize=1;strokeColor=none;fillColor=none;" vertex="1" parent="1">
          <mxGeometry x="324" y="689" width="70" height="30" as="geometry" />
        </mxCell>
        <mxCell id="V0NBKsWqu-eUCYTIVeNk-43" value="" style="edgeStyle=orthogonalEdgeStyle;curved=1;rounded=0;orthogonalLoop=1;jettySize=auto;html=1;entryX=0.085;entryY=0.6;entryDx=0;entryDy=0;entryPerimeter=0;" edge="1" parent="1" source="V0NBKsWqu-eUCYTIVeNk-11" target="V0NBKsWqu-eUCYTIVeNk-9">
          <mxGeometry relative="1" as="geometry" />
        </mxCell>
        <mxCell id="V0NBKsWqu-eUCYTIVeNk-11" value="" style="dashed=0;outlineConnect=0;html=1;align=center;labelPosition=center;verticalLabelPosition=bottom;verticalAlign=top;shape=mxgraph.webicons.apache;gradientColor=#DFDEDE;fillColor=default;strokeColor=default;" vertex="1" parent="1">
          <mxGeometry x="185" y="605" width="80" height="90" as="geometry" />
        </mxCell>
        <mxCell id="V0NBKsWqu-eUCYTIVeNk-12" value="Apache" style="text;html=1;align=center;verticalAlign=middle;resizable=0;points=[];autosize=1;strokeColor=none;fillColor=none;" vertex="1" parent="1">
          <mxGeometry x="200" y="695" width="60" height="30" as="geometry" />
        </mxCell>
        <mxCell id="V0NBKsWqu-eUCYTIVeNk-42" value="" style="edgeStyle=orthogonalEdgeStyle;curved=1;rounded=0;orthogonalLoop=1;jettySize=auto;html=1;flowAnimation=1;strokeWidth=2;fillColor=#d5e8d4;strokeColor=#82b366;" edge="1" parent="1" source="V0NBKsWqu-eUCYTIVeNk-13" target="V0NBKsWqu-eUCYTIVeNk-11">
          <mxGeometry relative="1" as="geometry">
            <mxPoint x="499" y="500" as="targetPoint" />
            <Array as="points">
              <mxPoint x="594" y="392" />
              <mxPoint x="237" y="392" />
            </Array>
          </mxGeometry>
        </mxCell>
        <mxCell id="V0NBKsWqu-eUCYTIVeNk-13" value="Actor" style="shape=umlActor;verticalLabelPosition=bottom;verticalAlign=top;html=1;outlineConnect=0;" vertex="1" parent="1">
          <mxGeometry x="579" y="470" width="30" height="60" as="geometry" />
        </mxCell>
        <mxCell id="V0NBKsWqu-eUCYTIVeNk-24" value="" style="rounded=0;orthogonalLoop=1;jettySize=auto;html=1;endArrow=none;startFill=0;exitX=0.5;exitY=0;exitDx=0;exitDy=0;" edge="1" parent="1" source="V0NBKsWqu-eUCYTIVeNk-28" target="V0NBKsWqu-eUCYTIVeNk-18">
          <mxGeometry relative="1" as="geometry" />
        </mxCell>
        <mxCell id="V0NBKsWqu-eUCYTIVeNk-16" value="" style="image;sketch=0;aspect=fixed;html=1;points=[];align=center;fontSize=12;image=img/lib/mscae/VM_Linux.svg;" vertex="1" parent="1">
          <mxGeometry x="260" y="537" width="50" height="46" as="geometry" />
        </mxCell>
        <mxCell id="V0NBKsWqu-eUCYTIVeNk-17" value="" style="shape=image;verticalLabelPosition=bottom;labelBackgroundColor=default;verticalAlign=top;aspect=fixed;imageAspect=0;image=data:image/png,iVBORw0KGgoAAAANSUhEUgAAAX4AAABaCAYAAAC/kD1oAAAAAXNSR0IArs4c6QAAAARnQU1BAACxjwv8YQUAAAAJcEhZcwAAJOgAACToAYJjBRwAAC6QSURBVHhe7Z13fFRV2se/d3p6r5BAQpHepVoAG4gFRMWy6q6rqLvva91dUXcVdXdt2FZWXX13FbtrV8SOAoI0aQkhhFSSQAipkzb13vePFDO3TGZSQMn9fj7XyHMzk5l77/md5zzPc84RJEmS0NHR0dHpNxjkBh0dHR2dExtd+HV0dHT6Gbrw6+jo6PQzdOHX0dHR6Wfowq+jo6PTz9CFX0dHR6efoQu/jo6OTj9DF34dHR2dfoYu/Do6Ojr9DF34dXR0dPoZuvDr6Ojo9DN04dfR0dHpZ+jCr6Ojo9PP0IVfR0dHp5+hC7+Ojo5OP0MXfh0dHZ1+hi78Ojo6Ov0MXfh1dHR0+hm68Ovo6Oj0M3Th19HR0eln6MKvo6Oj08/QhV9HR0enn6ELv46Ojk4/Qxd+HR0dnX6GIEmSJDcGi9frBUAQBPkpVSRJov3Pmkwm+WkdHR0dnT6kx8L/3y8L2LS3BiRAEAhE+iVJovWPSsyZmMjCOYPlvxIQ+UVHWLlqHTV2h49dgi4/R1SkjTNmDOfcOaOwWCzy0zo6JzxOl4fi8locTjcABsGAIECrIkgIgoDH4wXJy4TR6bJX6/yS6bHwf7OlnDuf3yM3B8zUETE8fsskQmzBi++qdzbyp8dWy81BMWJwNK89vZS0lBj5qV7B6xURJe3RkMmobu8pkgReUfypC5Sk1i6x7XMYBAGD4ae/LYoSTo8X4adf8cFgEDCbjHKzzi+Y7LwjLHt2FxX1ovyUD2apiR9evlhuVuDxtI78JY1nSBWhtcOh1W9s+xnoi3W6S4+F3+FwsOCODdQ3e+SnAiItIYS/3zSekRnBC++1f1zFp+ty5eagEASYd8oInvjzRcTGRMhP95g31+xjR4GjbYTji0GQuPLsgYwfnig/1WNyCqp4/YsSnF4DSCIehx1BcoPRgtEcxjXnpjF2WHLH76/5NpvH385HFCWMhnbPr7UFGw0Gzp4UzR2/PdXnb+j8stm17xDLnt1FVWPXQrv9pflykw87s4p55d0NNDs8uCULkuiFNkH3R6hFIiUpFqPRRIjFSEJ8JGaziYS4UAYmx5CeGoPVGrxTqOOfHgs/wLJntvD1jhq5OSDMRoG7rx7NeaeldRmekTNs9n3Ym11yc9CEWU28+PCVnDFrhPxUj/n6hyKWvaDdOc2fGseDN02Vm3vM3/6zkw82VMjNAESHGnj9gVNJigvtsK16bwvPrNa+h+dNDmP5/5wmN+v8gik5VM9dz+4kr7xFfkpBV8L/1Auf8dD/rZebu4UgCMRGWImPjWBAcjTzTh3BonkTiIz46XnV6Rldd8kBcPqE7nusbq/Ezv2ViF7/w005a77NVoi+IIDZZFA/jD/9lI8km5weCoorfY29xISRKaQnaHssX2w9QnOzb46ip4iixLqdVXJzB7PGJRITYfWxmcL930PjzywJL0kSHo8Xt9uD2+PF7fYiij32YfoVg1KjuOuasaTEWDDKG0WQWK09e31nJEmi2u5gf/FR1m4+wJ8e+4STL3iUjz/fhtvdGk7S6RnG5cuXL5cbg8fAt9sP0eLybXjDBkYwd3IyozKiOg6bxcjhal8Po77BwaLTB2IxBy4uD/7jUwpKqzv+bTEZWTB7BNcsmsaZ04dxhuyYO2MYp0wexunTh2IVIL/U17udMX4g0ycN9bH1BkYDlB1pIqe4QX4KAAkDA+NDGJERLT/VbdZtP8RHGw/LzQBYTAKXzEln9BDf0Nqe3ENs3lfvY+tMZqLA3GkZcvNxo9bu4MnXdvD1lhK+33WYdT+WkRJrISE2XP6rOn5Iigtl/owkauudFFc0oeV/LV04TG7y4cfdBXy3rVhu7jUcbi9fbTxATW0DE0cNJCRE25nS6Zpe8fijIy1kpCgb3NDUEJZdPdrnePCGcSD65gMq6jzsyP1JxLvC3tDC+u2FPraUhHD+95q5/ObSWVyjcvz60lksvXIWSy8/hUsWTPB5LYAkajzxPcRiNjJpRDzhIdqd2uqNpbjdrZUVvcH768rkpg5S4myMGaLsZExSs9zkw8/N09q4q5wPf6jlix2NfLq1jjXb6skvOSr/NZ0AiIkM45KzMkmMsclPBUznQoG+wuHy8OpH21nxry/lp3SCpFeEPzbSQuYApfAXHmqioqrRx5YUG8LYIVE+NhD4cH25zKbNDzsLaXH6dh7JCdEkxAWWnM0rVollB5CI6g6CIDB+aDSJ0doeSlm1i4Jy9RFBsJRW2NlXYpebO8hIsZI5MFJuJm1AAsnhjQxNcDIy1ctJSV4GRTeRGlZPRoyDiaNS5S85rqxXCWXp1SDdx2w29qhqy9+1jwy1khQbypiMcKaPjGPm6Himj4wjNc5KQkw4sZEhREWEEB5qwWbRdpAAnG4v/35/Gx+s2S4/pRMEvaJ2RqORkYMisZp9366yzkHxoSYfG8DpE3+qJmlnY1YVlTVdJ5kkSWLdD3lyM0PSYgMe5htVvBMVU6+RGBfGxOFKL7ud+kYXe/ZXd0xq6wnb99XS7NQevSyYma7aSGdNGszqZy7hrUcX8urfzuP1h8/jvScv5uOVl/HOE4tYMn+U/CXHDXuTg637auVmjMbuC5dOz/A3g+eZv5zPns//wjdv38NHq/7ABy/dwUer/sDOz5az57O7WPfmzXy56ne8849f89idF3DFgkmkJ8udQ1+efmUDdfVKbdEJjF4RfoCxQyKxmnzfzt7kpehwoyLpNm5YHOEhvr/rEQU27jriY1OjqraR/UW+3p4gCEwem44pQI/FoxbIVBHD3mTxXO1Jai4P7Cmso1k2igkWh8NNVn41brfK9wMSokzMHJ8kN//i2LXvKE09L+bSOUa0NPuO+jtjMBhITIhm8MB4Jo3L4NLzT+bRuxfx3F8vY9QQ7We1oqqBHVkH5WadAOk14c9IiyUl1ld4vRJk5VcrhHZAQihDUpVhmbU/HsbRhfiVHqqluMxX+I0CnHZypo/NH2rh6p772v4Znh7F+MFhcnMH2QdqqW/omZpV2V1kF9lRl3244sxBWLsYSv8S+GGvSqgO8Hh6L0+i03scrdUuGlDDbDYxZdxgHrvrAixmdWeurqGFHTllvTJK7o/0mvADnDV9gNxEVkE9TpnSxkVZGJoWrnCySyqayS+t8zXKKDpYTUWVbzx8/MhU0tP8lyN2JjHGLDcdEy49e7BmF1NW6yU7Xxm3DoaisjpKK9XDZVGhJuZOTZGbf3HYmxzsP6juQeoa8PMkPDREbgqIKeMy+dX5k+VmaLvXtXVNuNtmC+sER68K/9nTlMJfUedhf5FvxY7JZGTisChMssB6RZ2LgrImvw143dYDeGSho0Vzg5t4FWpVEX5/f7SXmHBSPIOStCehfLpRuxonEL7aUq46mgGYMjKGuKjuNcCfE2UVLVTXO+VmAGy27lel6PQdPcm9XHbBFLmpg+YWN16P1vhWxx+9MnO3M0vu+YaCQ74hi4tmJXL3db49d22Dk8V3rsfe4hvaOXd6EvddP1E1ASuKEjMWPULxYd+hY3pqNOlJ0Tg0YtuCQSDELOD1SkgSZOWV0yD7u3cvnc0t153jY+ttnC4PT7yRw3vrtCuY1qw4ncROM2oDxeFwcfbNX9DsVoZyzEaBP105gkUqi+E1t7ixN7naRl9C61IN+A5MBAGsFiNR4b6TvjrjcnuptTs6FvgCgfAQM+FhymomUZRocXlxOr14vGJb7bhEdLiZEJtKp9z+GoeXt78u5IWPClBr77cvTmHu9KGtayO1GwUDRoNAYqx6p9f+/ZVL+0lEhFoIC1V+fn/UNzppbvHQvsgZQutbCwLERYVgkuXBtJAkCafLi8Ml4nR5qa1vouxIIwcP1VHVbOBIxREcDhcDB6YQH21mUEocafGQEB9HRKgx6JBefnkjdz+7k8JD6qOprmbu/t9rX3PPP76RmwFYeffZXLJwjtwcEKWHa5lz2QoaWpQ3fPGZY3j0nsWEhwXf4YuSREOTg6YmJwfLq9my4wD2ZhGTIOGVJAwGI5FhFjLTYhk/JoOwEDMR4SEYjV3fP1EUqW90IHpEQEIUW99TkFrLXiPCrdhs2m1JDVEUaWxytJVVtz5UYquAYzYbiYrUDiOr0evCv/LtLF7+3NdzjQk3snrFHKwyT/uPT6zn2yzfzHxchJGPV8xVfXCzc8s54+qVcnOvcM8Nc7j5t2fLzb3OZ5sO8tAruTQ71V3zmxdncvV5J8nNXfLeV3k89EaB3AxAWoKNR34/keGDlJVFL76/l5dX7wNJwGQ0YDAIiLR2kJLUKl4Gg4EpwyNZcYd2492SVcEfnt6I2+VFQkJA4LzThrDsNxMwdfL4isrrWbezkqz8OgrK7dTZW2h0GTAKIrcuGcHl5/hOovN6RfYV17Mzr5rduTVszq3F4VKKAIAgujGILTg9IgYkBKOAZAgh3GZk/Qvny38dgOff3sXLa/IQRQmDQcAgCEiAKHq56ZJx/Pr84KqZlj31HV9ur8IguTGZjR0LkJkMBlb+cTrjRvgvi21xuMgtrie3xE7ewXrySxvIL7fjFpXtQYlEUpSJaWMSOG1cPNPGJWt2pHJ+rsJfUl7DrIsfxe1VOoKXzZ/Aw8sWBT2Zq7CkkrWb8vhmUy67csqoaVAfQbZjNRuZODKVGRMyOWf2KMaMGOC39LWuvpGHVn7G5t0HESUJh8OJ2+XG7fESFmrjlMmDuf8PFxERru6MqPHjniIeef4rKo7aEQQBSQJREvF6vVx8zhjuuPE8+Uv80nX3FSRTRydhNvj2JbWNXvYVKuPXV84bIjdR3eAlT+V3AV7/YLPc1Gu43P6Tyr3FpJPiiI/SflC/3l6JwxFcklcURVb/oL3kROaASDIHKJPptF1vpxSGk1CavDYa3Faa3DaaPTZavCE0e2w0uiw0N/svnWtygksMw2OMwGuMxGOMoKTSRV1bwtorSny8roRbn9rB8x8UsG53FWVVLhpdRkBAEkw+gu71evl2WylL/7aeP63cwbPv5fPdnmpN0QeQDGa8pkhMtmgMthgEczQGo1V1FNROfbOIxxCBaIrEY4jAJYTjFsLxGqNwebXvkxZ1jW4M5jCwROMRInARhoswmsUQPN6ufawnXt3DXc/t4qm38/hk0xH2lTYHKPoAAkfqvXy8sYLlL+fw6KtZHStmHk9aV4ntHlXVdlXRB0iIj1I4k/5wuz289Pb3XHnrKh5Y+TlrtxR0Kfq0zR3YvKeUJ19Zx3XL3uDvz3yG06WtF1GRYcybPYrCslrySqo5eKSRw7VOqho8lBxp5PU1Wax6Z1PAiWlJknjk+a9Z/2Mx+0uqyS2uYn9JFQcO1mAyWzj79PHyl3RJrwt/clwoaUnKYcfmHGXd9YRRA0hUziXi4/VFchNuj4dXPtoqN/cazS29u16OFklxYYzN0A7lVNY5OXAwuMlcucV2Siu1P//8afGapa7piVYsAYQfjLLOXI4oKgWmpt5Bjd2JKEq893UBj7+1n/IqhyJHQ9uQVfT+1Jiq6hy89Gkxu4taqKxz4Q5ANLuFoevvHgw2i7YQdR75aJFT5qTK7qGnX7exReSTTUe4e+UWvyJ1LGjffSNYRFHkLY02HxlqYcLIlIBnDB+tqufm5f/l7ifXUFheoyg4CZSyynqefXMj5179DOUVdariLQgCc2aNZumS6RqfT+DN1TvJ2td1Tk8UJZ75z9es216o+FsGg8BVF05hzIiBPvZA6N2nHoiJspCRrBT+XXk1tDiU5XZnTFV+6G921eLx+D6su7JL8EpdN5zuYjFpN9je5jJZOKMz9Y0eduVVIQbhJe0+UK0ZOkqIMjJ9vHY1z4JTB/ObBZnER/n3Klvjldp4m5VLblTWOampc7FmYxnPvJdPk0P9MwKIbQ95O06nC/cxGIX1egPwg9rEub5m7e563vmyEK/a3JWfMV6vyMdf7eG/X6jv9TFoQAxTJwZWwl1vb+bPj37I+1/tUcwp6i7ZhZX87s9vkJuvvgIuwLLfzeOM6eptPb+0in+9vqHLz7Npez5PrtogNwNw5rRhXH7hyd16rno9xg/w4gf7+L9Pin28lvQEKw//bgLDB8d2/lUqq5vYmVeDy/NTEwwxNjN3+hAMnbyx6pp6Sg/XYbUGn8jxT+s2kElx4cTFqodDehtRlLjh7xvZWaDu2c+ZGMu9100gIrTrBFBTs4cHX9rN19vVQz03XDCE6xcNl5t98IoSO3OP8sir2RRVqA99pw5y8uzyhXJzB1+v38M9Lx/CK3ucxmeEkX/Y4Vf0aUsgX78gjaWLx0BbbPfOf+4i/7D65wkGA162vqQeA13xyi7e+lZ9QbulFw5j6UL1hqvFbY+tY0OO+rpHL901ibHDtSclAVx530b2H1RfciPM7GJQagwGQUDw1CGZ46ipa+BQrcdvFzYk2crfbprA0HTftteZvozx//Pus7h44Vy5WROvV+SjL3ez/B9rOFKt/nleffwqzj616/yL2+3lroff481Pd6mONNsJtZmYMjqNzLQ4rBYTe3LLyCuporpeeyRtMhg4Z+ZQnnv4KtWcJMCOrBJu+stbFB9SlqlbzUaevmcRi85VL1mtPFrH/9z3X9ZtV0ZAMlKj+ezl3xMTHdhqBXL6RPjtTU4uues7qht8vYxfzx/MTYtPCigzfqJTUd3C0oc2cahaPZ5/1xVDWHyWf8EG+Pz7g9z772xElSnzc8bH8cBNkwixqj+Ucl77vIhn3t2PVyXO0JXwf7FuN/euOqwQfjVCrUbGD4lk3LBoEqNDMBgFzJKDMSelMDBJu/P1ihIr39nPq58rGwLAQ9cN4axZXV+zzjzxahZvrFUfcndH+G9fsZ71e9XzIYEI/0uf5GM1iYwdEsuQtAhCQ7ru/GmLAz/66h7e+bZcVp3UysxR0Tz9xxkqZ1rpS+FPjgvjpMxkhLaqsXYkJGrqmmhociKJIqUV9X5DXGlJUVy/ZDpXLZ5JaAAJ3eqaRm645002/Oi7oGM7U0en8pdbzmfqBGW1W2fKK2q578mPWfPdftXnO8xq4LOXf89JQ9QT9/X1Tdz457dYuyVffgqAxWeO5W/LFhIT+VMIeH/BIS7+/UtU1vjeD0EQuPqCKfzllnOJCO++E9wnChwZZmXqSOWOWrvzawNKcPUHYiLMTB2p7YF9sC6w6ehrfzysKvpmo8C00QkBi/6xIiLUzP3XjuCvN03k+oUjuHD2IM4/NZ15pw33K/rQWhYpSdohi2DCYx10Y5jcl/xqfiaXzxvG2OHxAYs+bYIwf0aa5mKAWYU1x2SuihoV1U2s21bAd9vy+XbrT8d3WwvYk1dBUXktxYf9i/7pUzJ5//mlXLvklIBEHyAn7xBbdpfIzQAMSIjg8b9c0qXoAwxIjuH+2y5gQJJKQhJocoqseke78CQqKoxnH1zCoBRlVR3AV5v2s35TbkcM3+FwceM9bylEHyA6IoQ/3nBmj0SfvhJ+gDNPVsbu9xbW0NCsjPP3R6wWE+OGxmKTLWzXTm65m4IuZjFX1zXw3S71pYgTo82MzuzeMLCvGBBvY9VfZjJnarrfOQH+MPh5ZLsl/D8zzCZDt2K2AHGRZs2KsQaHoZsp1p8HJhM0NTtodroVSU4tXvlwCy6VqiaDQWDR2RPISIuXn9JkQHIMt/1mttzcwfa95Rw6ot1eY6LDWXbj2USozGuxN7tY8e9vaWh04PF4eealteQUKtt1RJiVVx//FQnx6h1QMGi3oh4ybUyCYiE2l9fIum2lPrZA2FdQyY7sUvbklpG9v5zsvF442t5nb145WblllFUoq476mikjYzUbKsAnXczkXbOhDBH1hHfmgAiGpCtHXceL+EgTf7h8BOnJ2hVNgSD50cQA9eCExWoxEmpVfx5+6XyzuZAF1z7Lrfe/y5frchTFH3JaHE7WaYRWYiNDOH1qJuYgNn4CuGj+RDJS1b32w0frKexiP4izTh3BBXPGqnbseSVV3LviQ9ZuyuVdlYS2zWLkf648lZPH985mSH0m/DabmSnDlD3Tmk3as1bVyC04yq1P7+ZPz+dwxz/3cvvKvdz+TC8cbe9z2zN7uf2fe3n9q+A+V2+QkhDOxKHaQrg5uwZ7k3pyyeX28uH32h3DvGmpQe1o1tfMHJvAtLEJcnNwCCD4EfdAPcETFY9XxNVF9dUvmSanlzXrcvjf+99h+ROr/VZ97d5bSr3GEq7J8VFMHt91iEeOzWZlwezRcjMAVXXNlFX4X4wuIjyEP9xwJgnR6m3+nS+yuOWB9yg5rHRCp4xN54pF2stXBEufCT/AKeOTFX9gd3ELVbXqVQ9qvP5lEdUNHuqaRGobRWoavb1+1DaKftew7ysEQeDC2UMwKh0AAKrrneQUKB8CgL0FddQ3qb8wwiZy2iT/ScRjiSDA+TNTeqkj6j/i7nZ7OXy0iZyiOj7dUMS/P9zLw6uy+N9HvuPq5Ru46v5NPsfNT+wgt0Q9sXw8OXXSIJ6+ZyEr71vse9y7mIduPZsbLp3ODRdP51fnTWDa+HQyBsQSHmrRTL/UNzl55aPtvPD695oT1LL3q1dqAUwalUJYaPdi5NMmZWBWabCiKFFQUtnlZLXUpGheevRKwlWWAvGIEjX2FsXINTzUyh+vO4PEOP97FASDXJd7leEZsUSFK4eem7O0a187U9fgZFOWuvCdKIwfHsfwNOW8BwB7k4fswnpFra8kSew6UEOjbL2hdi6ZMyjgqfrHAgMCo4ZqJ7J1fPF4RLbtPcqTb+7ljqe3cc2DP3Dff3J57qODvPtdGT/ktpBT0si+4nqfo/BwEy5/GdLjxGXnjuayC6dxyYIpvsd5U7j2ijk88IcLeeBPF/L4vUv46IUbee3Ja3j8roVcNn+iqsjSNpv2lQ+3UHhQPbySW6C9t8foYdrzWroiNTGaOA2PvaKyHjGA6z9lfAY3LpmJVWPJ6c4YkFi2dA7TJytXOegJfSr8cVEWMpKVlRpb9ion+6ixOesIjQ7/PWhv4S+E0JcIgsClcwfJzdC2n8HO/VU0NPvWstubPGQV1KnWJdvMcP7pwQ9j+xqrnxmtASNJSFpuYDf5uYWHGhodrHhtN8ue3cU735WTV670AH9pNDerhyvVEASBoYMTWXjORB5atpB/3HuxZmVa8aE6Vr2zUW4GwKTRYQAkxnavsADAaDRgNas/yw4/oSc511w6g6nj1Nt9Z668YAq/WXKK3Nxj+lz4B6cqe8fiihYqq9UnL7UjihI/5tYoSrzMxtaF3GLDDUSHGogKhahQiNY4fjpnICZMIDrUgOrMeUl9yHgsmDwqQbMMb29RA9W1vg2nuq6FfcXqFQRTToojLrL7D/bPnd4Wam15OPbYm1w8+fZ+3l1XQX2z5xcv+O20uLsnMyE2CwvOGMt1l0zHrDH35/XVO2loDDx0DBDRzYoy2uaSuFUcLgCXyx3w8hSJcZFcdM5YjSUdWomLsrF4/sSAlvoIFvWr2UuYjEZOSotQrAVTWevgYIX/m1VZ20xBubKOdd7URB68fiwPXj+WB64bxf3Xjub+36ofy33+PYoHrhvNA9eN4tRxaklG7RvQ17TW9KtX4DQ64butvrXIO3OrOFqv9C7MRpg6Ogabhof0y0fo/Qe2l0cQ3aXJ4eapN/by8feH5Kc6CLMZGZVm45SxccyfGsclswew5Ix0Lj0jnSVnDOKCWakkRKl7o8cTi0k9yRoIVouZyy+YwoBE9dLkFqeXtZty5Wa/uFzdLykXBAE0hN/j9gacgmpucbIju1QRxu1MU4vbb8iqJ/R6O5IzflgUZpNv46pp9FJU7t/jP1LtoPSIMlG1eG4GU8emMG1cKjMnpnHK5HROmZTOLJXjlLaj9d9pzJiQxsyJaQwZoPIQHUf3ymY1MWl4LDaL+u34YL1v9c7qDeozVxOirUwYHufXi/hlI/3sk7tqpXqB8PnGMj7fqt3IF0yL4+V7prLyzpk89LtJ3HPtJG6/YjS3LhnBbUtGcNtlI7hp8UkMGdB7CcDewtTDhfAyByVy6hTtGPeWHcpJWn70lJr67gs/fkqKw0JsAd//77cX8sHX2XKzDw6XlxUvfk1BF2Wi3aFndyQAhqTHkhjtO1SRJMgqrFfsxduZgtIGapt8z4dbBUZm9PzB9ri774H0BYIgMOGkGGLD1T31w3YDO7Jb5z+UlNeRdVD986clhjF0oLKE9sRBUJ2l3I6/Wb1aqK0q2hM6ry8VKBXVzazeWIbLo1SrMJuBP1+Zwf03TiVjYDSRYVZCbCZsVhNms7HjMJkMWMzGn2WnbwhQDLUQBAGLWT0U2oryuvkLCapd50CRJAnNqXB+8gqdOVpj5+8rP6OxWb0dd6aqvoWld75GdZ0y+tETgn9Kg0QQBOZNV2bRd+fX+l1qd9s+ZS937vT4Hm3j1k4gmfdjTVpyJOOHqYd7ANZsag0BfLKhWH6qg3nTkrBoLBZ14uCvcfk7p05vz/b1eoPvSArL7Kr7CBuA82amct6cwNcf8id4x4tA497+EIP8XoM0JloB7PezomZXVNfYOVqrjEQAJMdHdNnxtjhc3P3Q++wrUuqbFtmFlTy7ah0tQe7T4Y8+F36AedOVixcdrnZTUKS+oiTAlr3KC7NwTu/MWvs5IggCF89WXqd2sg86OVJVx9qd6uWt4VYD58xQLpNxIiEhgR8PvTuL/4l+Rp3doeyo/9yVGtn7K3CpfK2IUAMzx8RjCuJ7BRpqOJb4i2MHSouf/TKcKluujh+ldDbb2ZZzqFsdNMD2PaWak+SGZ6Z0+Qy++t4PrPn+gNxMiM3MKw8vIT1ZvcN645Mf2bpT2+kLFv+fspcYkBTNkGTfCRMi8PkW9Z53444y7A7fBzgx2sTQtBO7Fnz8iGQyU9QnllTWtPDvj/M7drSSs/C0ASe8ty+A36n6XjF40TNplOYB2BtbNCcIyZEkiay8Kmqbtd9PiyON6qPYiDArMRo142pIiD9Lj18tFBMM5RV1bNurPbN+wshkuYmJYzI0y0ArqxrYE8AmKHK8XpHP1+2Vm4HW/ZRTu1hkcGd2KS+/t00R4raYjNx+zemcPWc8990yn2iVBdhq7C08/uJX1NWrjzaC5ZgIP8D0MUrR/nJbJW63MtHy8QZlsmbaqASELoZRAdNLb9MXXDpXvQbf3iLy3voj2FU2nQ6xCCyYdWJ7+7TJh8dPaKamIfgbGxetLdT5pU3YmwMTfnuTize/Km7buL13cDjdNMvmcPjD3uCkpj74EUdf4w2w81TD7fHyzurtlPlZAG3iWGUkIDw8lFkT0uVmACprGli/pSDgTr2d9Ztz2ZOvnoBPiI1g0IA4ubkDURR59rV1FJQp5zCNHpbEovkTEQSBU6YOY+6MYfJfAWBLdhl/fvTDoD+3GsdM+GeMS0GQzZKqaRTZV+y76URzi4tNOcpebdJJsb2m1z1NNvUl08YkkqCxG5bQtnG3nEnDY0lJVJ/9eyIhCAIhfjbi2b5fPQzmj7EZ2snwnQeqKVHZQEON597czjc/HlXMOwkEyaMu1vYmD0frAhf+jzeUkleu/l7Hk54sxb51VyHPvfE9TrVYGJCaGMno4eoh0qsumi43AeDyiLy1eju19sCvVXOzg+VPfyY3dzAyI56MNLUy8Vaef2Utq7/LkZsB+N9rTmdgSmt+LzoihFt+o71pzQdrc3ijF/YeV1eSPiApNoT0ROWwdfMe3zU1du2vwiUbCiVEmUhLUr62u6jG4X4mnUFclIUpI7Q9Bzkmg8DkkTGEagxrTyQMAiTHGjWLJzbl1PHZhoKg9phNHxhLsqzqrB2vZOCpN7MpP2JXDaFIksShyibu/9dm3t1k75boAwwbqF6p5vLCN9vLaW7xP4qosTt57t0cVq0pOp5VyZqYrf4qcnwRRYmqajt79pWx4vmvuOq2V6hrVO/8DAaB6y+ZqZnXmDAmnYkjB8jNABSW17Ls4ff8LqXcTl19Ew/8Yw35pTXyUwBYTAauWjxDNbErSRIbtuXz0IvfKXIdBuDaRZNZMHecz3cYMTSZFcsuVN3Vy+MVefn9beTma69FFAjG5cuXL5cb+wKjEXYfqKNENnErxGJk7pSkjmqd1RtL2ZHnezOGp0Vw0Zx0Qntp/Zlt++vZmed7E09Kj2L25OO/sJnJZKC+wcW23JqAPKX4aAu/OieT5Pied4x78uvYmlOtKh4Dor0smD1Cbu6goOQI3+5uVI3mGgSB6y8MbicrNQRBoMXhYVNWJS0utb8EO/NqqKxuprnFS21tDfZGF8XlRwm1GbHZlDM2TUaBgxWN5KpU1QAcrfeSfaCKFocHk0HC627G3uQmt7iOTzeV8dLqAjbva/BbN97OwlNTSIpTziFxeSTWbj+M2v7fZVVOmh0eRqSHEWJTCuj2nKO88H4u7284jNSFH3f9hUM1RbKmwcU32yqo1cghLV2oHn5o58c9hazdoj6/xCgZsVoM7DtQzo49Bezdd5Cc/WXsyCpi445idmSVsjO7hM+/y+Hdz3fy9uofeemdH/hiU55mIhVgwogB/PHGs4lUiYkD2Kxm3C43P+wqxq3yPnnF1eTklRNqNZExKAGjrBTX7fHy/bZ8Hn/xGz7+JhuX2g0Crlwwnl9feoqq8JdV1LH8yU8pKld2GtPGpfPEvZdgtSp1bdTQFIoOVpKjMoGrur6ZJnsz584dKz8VMH2y9aIakiTx7Lt7efmzUh9hyUwJ4ZHfTSBjYDQNjc3c9689rM/2HbKfNzOZ+66boPnQBsvKd3N5+VPfh/S8maksv368j+14UXLIzk0rtlFZq94IOzN5WBT/vHNar0zr7qutF42CwJb/zJObu0Vzi4ubn/iRXfnanpogCJgMrT8FoXXeyH1XDuCc2a37+cpZv6OC5f/Jxt6kzDe1YxRaR4qC0JoiEqXW1RTlXhxAmLGFJm+I3Ky59WKNvYX7/rWLH3LUv5MgQEKEkTOmJDMw2klIaCgHj7rZsLuS0ioRtzewMs6t/5mnGebs8daLr3/DPU9/LTdD2/1oX3JB/jml9v8IrcshyM9rERlu46k/L+bcOWP8DtZbHC6uuvXfbNihvaOdxdQ6F+L0kzMIMUk43V5cLomcwkoqa1sT/Mpuo5Vxw5N5//mlRIQr7zfAP/69lr+/8LXie8VG2nj2/iXMmaXtTG3dVcTSe97i8FHlHswGg8BTy85nycIZ8lMB4d9F6EUEQWDckDjF8g1FFS3cuXI7d6/cyq2Pb+WHfco47fTRCaqiv/xfW7n8nu+4/C/fB3W89aVaWVRgD9yxYFBqJKMHKz1DNeZPT+4V0e8KNYHrjGBRD1f0NqEhFi6bOwCTinfVjiRJuL0SLo+I0926Rr1ah9TOyaPjGZ/pP0filVpjw063iKPtPeXXxGSAc05O4Lm7TieAhRc7iI0M4bxZadjM6t9JkqDS7uXNteU89n4VD7x2kJe/OExBhReX5yexNAAjBlq54cKuF//qbeTC1hlJknB5vLg8Xtxe0efweEU8YutPf+/RmbSkSB6780IWzPUv+rSt97Pyr1cwRSPkA+DyeGlqcbFm/X7eW5vH6g0FfLmlkLKjjbj8iP6g5EiW33Kupuhv313E4y99q/q9zp8zihlTMuVmH6aMG8Tl56mvwS+KEsue+JQdWcpCmEA4ZsIPMG5oNPJQtCRB4RE3X/5Yze7iFtXh7smjlVukVdc7+HJ7NQcOtXCgrCGow+FW3oj4iGN6KbpkyRnq1T2diQg1Mfdk7Qe6N/F20TGazOrD7b5g9skDufAUZQmfP9Qch3ZCrCZuuWwMydHKmGqgmI0C505P5PYrRhEWaiUmQuW9/FzC06aksOhU7drzQBg2KIq7fjOJy89SVrn0Nd2ZsRwsZpOBs6YPY+X9l7LwnAny05okx0fx6N2LOP3kTIx+noNgGJwSw9/uOI9pE9XFu+hgJTff/y4OlXzT4JRIbrv+bGxd5D4MBgM3XjmL8cMS5acAaHZ4eWbVOo7W+F/+Ro2+v1udiIoM4cypwT3c4zNsxEUpRWXt5hJUrmm3sJpg6pjghKSvmTwqiUHx/t3Gc06OJTJCGbfuLga0l6cWJRUhO06YTAZuu2IMZ05Slghr4epiydzBqRE8cdtU4iP9X3Mtrr9gMHdfO4G46FBCQ8ykxitHbF4/k89CLEZuu3Ic8yZ2L1czMi2Ep28Zx+jMaMLDQkiLP7b3y+FUT8D2FqdPzuDNJ3/Fqid/zfRJ2uv2aDFqeCovr7iaaxZOlp8KEolzTjmJb964hTNPG4vJpHxeXC43z726gUKVuD7Afx67mpTEwEbIUZGhvPjoNURobDD/2YYc1qxVbtXYFccsudvO6EGhbNt7lBq7x58D1MHvFo9geLrvRZIkiUdezVZdoTJYjILAOdOSOP+0NNUs+vFCEFordrbmVCOJLkxGLya8SKIbr8dJVJiJ268cR0KM+jCzO2TnV7MlpwavKCKJLgRD6/UQJA/DBicxz8/M4NKKJr7YeghEFyZEkNyICAiCAZtF4Nrze57c7YzJZODk0fHEhhpocXlxu9243CKSRtHvnHHhnJTp3+mIi7IxbUw8druD+kYXLS6v5qQPQRJJjbMyfVQ0d109hnNnpXd4vUYB9hXVsr/0p3i5ETeLTksjUSW5244gCJw8NpVwG9gbXDQ2e/A3sdhihOFpYVx2xkDuu34S4aE/OQE/5lRy8Ehzx/UwG+G6C7STu/ZGF19tO0R1nR0jXpDcSBgRBAGrWeC3Xdy/rNyDZB+oJDzEQojVTFiIRfUID7EQ2vb/IbbWf4fZzKQlR5MYG0HGwDgyBsYxIiORCSNSuWrhFP56+/lcd8WpDB6YoJpADQRBEDCbTZx56ijmThuK5BFxe0SaWpyKCVVyzEYDGQNimDJ2EPf+/hxuuXYOoSFWzTDThi15rHp/M2aTifBQS8cRHWHjhiUzuOCs4PKV0ZEhSF6RotIqQmxmQqxmwkNa3zM0xEJZeTUL5o7BppL81+KYJXc7k1tYxStrCvhmh3K9/c6YBC+fP30W0TKv9tCRehbdtRGv1jJ5ARIdChfNTmPh7ExSE7rnafUl9iYHO3Nr8bidGI0CSK3lXB6Ph+ioMCaPSsKs4nF0l9KKJvYfbEAUPUheN4LRBgIYJA+piaGMytQuM62ud7Ijtwq8LgwGAUmSEDGBwUSIGU6d5F90e8LR2mbKDjdR2+ilsroWu9OM6PUgSRJWi5HEmBCmj4kmPsb/zMp2mltc7Cuup6DUTmlFPUfqJQ5XHAEJUpPjSYi2MTw9ksy0CDJTIwhV8cYKy+wUHmruWGPGhItp41MJC6AyTRRFyo40kF/aQMmRJgrKGjha20JtEwiig7TEMAYmhTNhWDxD0yJJTQxTCGL+wVqKDjch0fp8WE1w2qRkTcFpcXjYlVeNvaGJ9mpnUbCAYMRmFjhtkv8R8dGaBgqLK5EQ8IoS/vVZQEJCEgUMBpAkkbiYMAwGA1HhNsxmM6Gh5t7ZvEcDp9NNcVk1haU1lJbXUHTwCLUNzo4NXESvRFSkjZTEKIZmJJOeEs3wzMDWwiosqeRwZX1r7q39OkhgNhsZOjiByIjgtaauoYWCokrcnlZnwCC0dmaSJGEQBIZnJhATHdjzzfESftq89oaGRn7cd5Ty8sO424L7Li8Q1johIy3eyvyZAxUPa0NjC1kHqgEJo2CAIOKLoihiMBqJDjeTMSACi0XZaHV0OiNvIvLn8VjQ+hmEjkTB8fgMJzLye9zOiXqdj5vw6+jo6OgcHwJ3lXV0dHR0Tgh04dfR0dHpZ+jCr6Ojo9PP0IVfR0dHp5+hC7+Ojo5OP0MXfh0dHZ1+hi78Ojo6Ov0MXfh1dHR0+hm68Ovo6Oj0M3Th19HR0eln6MKvo6Oj08/QhV9HR0enn6ELv46Ojk4/Qxd+HR0dnX6GLvw6Ojo6/Qxd+HV0dHT6Gbrw6+jo6PQzdOHX0dHR6Wf8P4FIhXVyjSwIAAAAAElFTkSuQmCC;" vertex="1" parent="1">
          <mxGeometry x="70.6" y="394.20000000000005" width="194.4" height="45.8" as="geometry" />
        </mxCell>
        <mxCell id="V0NBKsWqu-eUCYTIVeNk-19" value="" style="edgeStyle=orthogonalEdgeStyle;curved=1;rounded=0;orthogonalLoop=1;jettySize=auto;html=1;endArrow=none;startFill=0;" edge="1" parent="1" source="V0NBKsWqu-eUCYTIVeNk-18" target="V0NBKsWqu-eUCYTIVeNk-5">
          <mxGeometry relative="1" as="geometry" />
        </mxCell>
        <mxCell id="V0NBKsWqu-eUCYTIVeNk-18" value="Hypervisor / Virtual Box&lt;br&gt;192.168.0.116" style="image;points=[];aspect=fixed;html=1;align=center;shadow=0;dashed=0;image=img/lib/allied_telesis/computer_and_terminals/Server_Desktop.svg;" vertex="1" parent="1">
          <mxGeometry x="270" y="386" width="42.599999999999994" height="54" as="geometry" />
        </mxCell>
        <mxCell id="V0NBKsWqu-eUCYTIVeNk-20" value="" style="image;aspect=fixed;perimeter=ellipsePerimeter;html=1;align=center;shadow=0;dashed=0;spacingTop=3;image=img/lib/active_directory/internet_cloud.svg;" vertex="1" parent="1">
          <mxGeometry x="342.57" y="122" width="142.86" height="90" as="geometry" />
        </mxCell>
        <mxCell id="V0NBKsWqu-eUCYTIVeNk-23" value="INTERNET" style="text;html=1;align=center;verticalAlign=middle;resizable=0;points=[];autosize=1;strokeColor=none;fillColor=none;" vertex="1" parent="1">
          <mxGeometry x="371.7" y="158" width="78" height="26" as="geometry" />
        </mxCell>
        <mxCell id="V0NBKsWqu-eUCYTIVeNk-25" value="LAPTOP&lt;br&gt;192.168.0.213" style="image;points=[];aspect=fixed;html=1;align=center;shadow=0;dashed=0;image=img/lib/allied_telesis/computer_and_terminals/Laptop.svg;" vertex="1" parent="1">
          <mxGeometry x="489" y="391.6" width="50.28" height="51" as="geometry" />
        </mxCell>
        <mxCell id="V0NBKsWqu-eUCYTIVeNk-29" value="Virtual Machine&lt;br&gt;Linux Debian" style="text;html=1;align=center;verticalAlign=middle;resizable=0;points=[];autosize=1;strokeColor=none;fillColor=none;" vertex="1" parent="1">
          <mxGeometry x="316" y="537" width="100" height="41" as="geometry" />
        </mxCell>
        <mxCell id="V0NBKsWqu-eUCYTIVeNk-31" value="" style="edgeStyle=orthogonalEdgeStyle;curved=1;rounded=0;orthogonalLoop=1;jettySize=auto;html=1;endArrow=none;startFill=0;dashed=1;" edge="1" parent="1">
          <mxGeometry relative="1" as="geometry">
            <mxPoint x="489" y="417" as="sourcePoint" />
            <mxPoint x="417" y="320" as="targetPoint" />
          </mxGeometry>
        </mxCell>
        <mxCell id="V0NBKsWqu-eUCYTIVeNk-33" value="Router&lt;br&gt;192.168.0.1" style="text;html=1;align=center;verticalAlign=middle;resizable=0;points=[];autosize=1;strokeColor=none;fillColor=none;" vertex="1" parent="1">
          <mxGeometry x="289" y="284" width="81" height="41" as="geometry" />
        </mxCell>
        <mxCell id="V0NBKsWqu-eUCYTIVeNk-37" value="&lt;b&gt;Universidad de Palermo&lt;br&gt;&lt;/b&gt;Computacion Aplicada&lt;br&gt;Trabajo practico integrador final&lt;br&gt;&lt;br&gt;&lt;div&gt;Integrantes:&lt;/div&gt;&lt;div&gt;&lt;br&gt;&lt;/div&gt;&lt;div&gt;Facundo Emanuel Modarelli&lt;/div&gt;&lt;div&gt;Benito Baltasar Buscaglia&lt;/div&gt;&lt;div&gt;Gabriel Alfredo Cerletti&lt;/div&gt;&lt;div&gt;Eduardo Hassan Gordillo&lt;/div&gt;&lt;div&gt;Emanuel Jalaf Diaz&lt;/div&gt;" style="text;html=1;align=center;verticalAlign=middle;resizable=0;points=[];autosize=1;strokeColor=none;fillColor=none;" vertex="1" parent="1">
          <mxGeometry x="-166" y="579" width="186" height="170" as="geometry" />
        </mxCell>
        <mxCell id="V0NBKsWqu-eUCYTIVeNk-39" value="" style="html=1;verticalLabelPosition=bottom;align=center;labelBackgroundColor=#ffffff;verticalAlign=top;strokeWidth=2;strokeColor=#0080F0;shadow=0;dashed=0;shape=mxgraph.ios7.icons.wifi;pointerEvents=1" vertex="1" parent="1">
          <mxGeometry x="438" y="368" width="29.7" height="21" as="geometry" />
        </mxCell>
      </root>
    </mxGraphModel>
  </diagram>
</mxfile>
